<svg id="file-music" xmlns="http://www.w3.org/2000/svg" width="112.753" height="112.753" viewBox="0 0 112.753 112.753">
  <path id="Caminho_46" data-name="Caminho 46" d="M0,0H112.753V112.753H0Z" fill="none"/>
  <path id="Caminho_47" data-name="Caminho 47" d="M14,3V21.792a4.7,4.7,0,0,0,4.7,4.7H37.49" transform="translate(51.772 11.094)" fill="none" stroke="#ff5921" stroke-linecap="round" stroke-linejoin="round" stroke-width="4"/>
  <path id="Caminho_48" data-name="Caminho 48" d="M61.376,87.564H14.4a9.4,9.4,0,0,1-9.4-9.4V12.4A9.4,9.4,0,0,1,14.4,3H47.282l23.49,23.49V78.168A9.4,9.4,0,0,1,61.376,87.564Z" transform="translate(18.49 11.094)" fill="none" stroke="#ff5921" stroke-linecap="round" stroke-linejoin="round" stroke-width="4"/>
  <circle id="Elipse_9" data-name="Elipse 9" cx="5.5" cy="5.5" r="5.5" transform="translate(45.602 70.038)" fill="none" stroke="#ff5921" stroke-linecap="round" stroke-linejoin="round" stroke-width="4"/>
  <path id="Caminho_49" data-name="Caminho 49" d="M12,34.49V11l9.4,4.7" transform="translate(44.376 40.678)" fill="none" stroke="#ff5921" stroke-linecap="round" stroke-linejoin="round" stroke-width="4"/>
</svg>
