<svg id="trash" xmlns="http://www.w3.org/2000/svg" width="43.679" height="43.679" viewBox="0 0 43.679 43.679">
  <path id="Caminho_39" data-name="Caminho 39" d="M0,0H43.679V43.679H0Z" fill="none"/>
  <line id="Linha_15" data-name="Linha 15" x2="29" transform="translate(7 13.179)" fill="none" stroke="#595d5c" stroke-linecap="round" stroke-linejoin="round" stroke-width="3"/>
  <line id="Linha_16" data-name="Linha 16" y2="11" transform="translate(18 20.179)" fill="none" stroke="#595d5c" stroke-linecap="round" stroke-linejoin="round" stroke-width="3"/>
  <line id="Linha_17" data-name="Linha 17" y2="11" transform="translate(25 20.179)" fill="none" stroke="#595d5c" stroke-linecap="round" stroke-linejoin="round" stroke-width="3"/>
  <path id="Caminho_40" data-name="Caminho 40" d="M5,7,6.82,28.84a3.64,3.64,0,0,0,3.64,3.64H25.02a3.64,3.64,0,0,0,3.64-3.64L30.48,7" transform="translate(4.1 5.74)" fill="none" stroke="#595d5c" stroke-linecap="round" stroke-linejoin="round" stroke-width="3"/>
  <path id="Caminho_41" data-name="Caminho 41" d="M9,10.28V4.82A1.82,1.82,0,0,1,10.82,3H18.1a1.82,1.82,0,0,1,1.82,1.82v5.46" transform="translate(7.38 2.46)" fill="none" stroke="#595d5c" stroke-linecap="round" stroke-linejoin="round" stroke-width="3"/>
</svg>
